<svg width="37" height="37" viewBox="0 0 37 37" fill="none" xmlns="http://www.w3.org/2000/svg">
<circle cx="18.5" cy="18.5" r="18.5" fill="#1F6FFF"/>
<path d="M18.626 27.793C13.4111 27.793 9.16309 23.5449 9.16309 18.3301C9.16309 13.1055 13.4111 8.86719 18.626 8.86719C23.8506 8.86719 28.0889 13.1055 28.0889 18.3301C28.0889 23.5449 23.8506 27.793 18.626 27.793ZM18.4307 20.2832C18.9287 20.2832 19.2314 19.9805 19.2412 19.5898C19.2412 19.5605 19.2412 19.5215 19.2412 19.4824C19.251 18.9551 19.5732 18.623 20.2275 18.2031C21.1553 17.5879 21.7998 17.0312 21.7998 15.8984C21.7998 14.3066 20.3838 13.4375 18.7334 13.4375C17.083 13.4375 15.999 14.1992 15.7256 15.0781C15.667 15.2344 15.6279 15.4004 15.6279 15.5664C15.6279 16.0059 15.9893 16.2598 16.3311 16.2598C16.6631 16.2598 16.8779 16.1035 17.0635 15.8691L17.2197 15.6543C17.5615 15.0977 18.04 14.8047 18.6455 14.8047C19.4854 14.8047 20.0322 15.2832 20.0322 15.9766C20.0322 16.6113 19.6318 16.9238 18.8018 17.5C18.1182 17.9785 17.6104 18.4668 17.6104 19.3945V19.502C17.6104 20.0195 17.9033 20.2832 18.4307 20.2832ZM18.4111 23.1641C18.9873 23.1641 19.4756 22.7246 19.4756 22.1484C19.4756 21.5723 18.9971 21.1328 18.4111 21.1328C17.8252 21.1328 17.3467 21.582 17.3467 22.1484C17.3467 22.7148 17.835 23.1641 18.4111 23.1641Z" fill="white"/>
</svg>
