<svg width="37" height="37" viewBox="0 0 37 37" fill="none" xmlns="http://www.w3.org/2000/svg">
<circle cx="18.5" cy="18.5" r="18.5" fill="#1F6FFF"/>
<path d="M12.6309 25.2988V12.7129C12.6309 10.9639 13.5186 10.0674 15.25 10.0674H20.7607C21.543 10.0674 22.0615 10.2607 22.5537 10.7705L26.0605 14.2686C26.5439 14.752 26.7109 15.209 26.7109 16.0439V25.2988C26.7109 27.0566 25.832 27.9531 24.0918 27.9531H15.25C13.5098 27.9531 12.6309 27.0654 12.6309 25.2988ZM14.0723 25.2549C14.0723 26.0635 14.5029 26.5117 15.3379 26.5117H23.9951C24.8389 26.5117 25.2695 26.0635 25.2695 25.2549V16.1318C25.2695 15.5957 25.1729 15.3145 24.8916 15.0244L21.8594 11.9658C21.543 11.6406 21.209 11.5 20.7168 11.5H15.3467C14.5029 11.5 14.0723 11.957 14.0723 12.7656V25.2549ZM15.7158 19.9814V18.9268C15.7158 18.2061 16.1641 17.7666 16.8672 17.7666H20.4971V25.1318H18.915V20.5C18.915 20.1836 18.7305 19.9814 18.3965 19.9814H15.7158ZM21.4551 25.1318V17.7666H22.4834C23.1865 17.7666 23.6348 18.2061 23.6348 18.9268V23.9805C23.6348 24.6924 23.1865 25.1318 22.4834 25.1318H21.4551ZM15.7158 23.9805V20.9395H17.8252C17.9131 20.9395 17.9658 20.9834 17.9658 21.0713V25.1318H16.8672C16.1641 25.1318 15.7158 24.6924 15.7158 23.9805Z" fill="white"/>
</svg>
