<svg width="38" height="37" viewBox="0 0 38 37" fill="none" xmlns="http://www.w3.org/2000/svg">
<circle cx="18.5" cy="18.5" r="18.5" fill="#1F6FFF"/>
<path d="M28.1533 18.6641C28.1455 19.5234 26.9658 20.1719 25.5439 20.1719H22.5361C22.1299 20.1719 21.9736 20.25 21.7236 20.5234L16.7471 25.9453C16.5908 26.1172 16.3955 26.2109 16.1768 26.2109H15.2939C15.0986 26.2109 14.9893 26.0312 15.083 25.8359L17.6455 20.1797L13.8877 19.75L12.5439 22.1953C12.4424 22.375 12.2861 22.4531 12.0439 22.4531H11.7236C11.5283 22.4531 11.3955 22.3281 11.3955 22.1328V15.1875C11.3955 14.9922 11.5283 14.8672 11.7236 14.8672H12.0439C12.2861 14.8672 12.4424 14.9531 12.5439 15.1328L13.8877 17.5781L17.6455 17.1484L15.083 11.4922C14.9893 11.2891 15.0986 11.1172 15.2939 11.1172H16.1768C16.3955 11.1172 16.5908 11.2109 16.7471 11.3828L21.7236 16.8047C21.9736 17.0781 22.1299 17.1484 22.5361 17.1484H25.5439C26.9658 17.1484 28.1455 17.7969 28.1533 18.6641Z" fill="white"/>
</svg>
