<svg width="21" height="21" viewBox="0 0 21 21" fill="none" xmlns="http://www.w3.org/2000/svg">
<path d="M0.836914 13.8789C0.319336 13.3711 0.163086 12.375 0.915039 11.5352C1.16895 11.2422 1.75488 10.6855 2.78027 9.67969C10.251 2.27734 13.0732 0.65625 15.2314 2.75586C16.833 4.31836 15.1338 6.90625 12.2041 10.998C9.21582 15.168 8.4248 16.1543 8.85449 16.584C9.15723 16.8965 10.0459 16.4473 12.7412 14.084C15.6807 11.4863 17.3213 10.0508 18.708 11.3984C19.7334 12.3945 19.0693 13.7422 17.8877 15.832C16.9795 17.4434 16.501 18.2734 16.7354 18.498C16.9209 18.6934 17.7607 18.2734 19.0107 17.0625C19.2744 16.8184 19.6357 16.7793 19.8896 17.0234C20.1631 17.2969 20.085 17.6777 19.7529 18C17.9756 19.7383 16.5107 20.0703 15.749 19.3086C14.6553 18.2148 15.7881 16.5449 16.6865 15.002C17.3604 13.8398 17.8291 13.0586 17.5654 12.7852C17.1846 12.4043 15.8271 13.6934 13.9619 15.3242C10.6123 18.2734 8.46387 19.6211 7.07715 18.2344C5.31934 16.4766 7.67285 13.6348 10.5732 9.60156C12.126 7.44336 13.7373 5.16797 13.249 4.73828C12.6338 4.18164 9.61621 7.25781 4.91895 11.9941C3.95215 12.9805 3.40527 13.5566 3.1416 13.8008C2.36035 14.5039 1.34473 14.377 0.836914 13.8789Z" fill="white"/>
</svg>
