<svg width="37" height="37" viewBox="0 0 37 37" fill="none" xmlns="http://www.w3.org/2000/svg">
<circle cx="18.5" cy="18.5" r="18.5" fill="#1F6FFF"/>
<path d="M7.83691 20.8789C7.31934 20.3711 7.16309 19.375 7.91504 18.5352C8.16895 18.2422 8.75488 17.6855 9.78027 16.6797C17.251 9.27734 20.0732 7.65625 22.2314 9.75586C23.833 11.3184 22.1338 13.9062 19.2041 17.998C16.2158 22.168 15.4248 23.1543 15.8545 23.584C16.1572 23.8965 17.0459 23.4473 19.7412 21.084C22.6807 18.4863 24.3213 17.0508 25.708 18.3984C26.7334 19.3945 26.0693 20.7422 24.8877 22.832C23.9795 24.4434 23.501 25.2734 23.7354 25.498C23.9209 25.6934 24.7607 25.2734 26.0107 24.0625C26.2744 23.8184 26.6357 23.7793 26.8896 24.0234C27.1631 24.2969 27.085 24.6777 26.7529 25C24.9756 26.7383 23.5107 27.0703 22.749 26.3086C21.6553 25.2148 22.7881 23.5449 23.6865 22.002C24.3604 20.8398 24.8291 20.0586 24.5654 19.7852C24.1846 19.4043 22.8271 20.6934 20.9619 22.3242C17.6123 25.2734 15.4639 26.6211 14.0771 25.2344C12.3193 23.4766 14.6729 20.6348 17.5732 16.6016C19.126 14.4434 20.7373 12.168 20.249 11.7383C19.6338 11.1816 16.6162 14.2578 11.9189 18.9941C10.9521 19.9805 10.4053 20.5566 10.1416 20.8008C9.36035 21.5039 8.34473 21.377 7.83691 20.8789Z" fill="white"/>
</svg>
