<svg width="20" height="20" viewBox="0 0 20 20" fill="none" xmlns="http://www.w3.org/2000/svg">
<path d="M9.62598 19.793C4.41113 19.793 0.163086 15.5449 0.163086 10.3301C0.163086 5.10547 4.41113 0.867188 9.62598 0.867188C14.8506 0.867188 19.0889 5.10547 19.0889 10.3301C19.0889 15.5449 14.8506 19.793 9.62598 19.793ZM9.43066 12.2832C9.92871 12.2832 10.2314 11.9805 10.2412 11.5898C10.2412 11.5605 10.2412 11.5215 10.2412 11.4824C10.251 10.9551 10.5732 10.623 11.2275 10.2031C12.1553 9.58789 12.7998 9.03125 12.7998 7.89844C12.7998 6.30664 11.3838 5.4375 9.7334 5.4375C8.08301 5.4375 6.99902 6.19922 6.72559 7.07812C6.66699 7.23438 6.62793 7.40039 6.62793 7.56641C6.62793 8.00586 6.98926 8.25977 7.33105 8.25977C7.66309 8.25977 7.87793 8.10352 8.06348 7.86914L8.21973 7.6543C8.56152 7.09766 9.04004 6.80469 9.64551 6.80469C10.4854 6.80469 11.0322 7.2832 11.0322 7.97656C11.0322 8.61133 10.6318 8.92383 9.80176 9.5C9.11816 9.97852 8.61035 10.4668 8.61035 11.3945V11.502C8.61035 12.0195 8.90332 12.2832 9.43066 12.2832ZM9.41113 15.1641C9.9873 15.1641 10.4756 14.7246 10.4756 14.1484C10.4756 13.5723 9.99707 13.1328 9.41113 13.1328C8.8252 13.1328 8.34668 13.582 8.34668 14.1484C8.34668 14.7148 8.83496 15.1641 9.41113 15.1641Z" fill="white"/>
</svg>
