<svg width="18" height="16" viewBox="0 0 18 16" fill="none" xmlns="http://www.w3.org/2000/svg">
<path d="M17.1533 7.66406C17.1455 8.52344 15.9658 9.17188 14.5439 9.17188H11.5361C11.1299 9.17188 10.9736 9.25 10.7236 9.52344L5.74707 14.9453C5.59082 15.1172 5.39551 15.2109 5.17676 15.2109H4.29395C4.09863 15.2109 3.98926 15.0312 4.08301 14.8359L6.64551 9.17969L2.8877 8.75L1.54395 11.1953C1.44238 11.375 1.28613 11.4531 1.04395 11.4531H0.723633C0.52832 11.4531 0.395508 11.3281 0.395508 11.1328V4.1875C0.395508 3.99219 0.52832 3.86719 0.723633 3.86719H1.04395C1.28613 3.86719 1.44238 3.95312 1.54395 4.13281L2.8877 6.57812L6.64551 6.14844L4.08301 0.492188C3.98926 0.289062 4.09863 0.117188 4.29395 0.117188H5.17676C5.39551 0.117188 5.59082 0.210938 5.74707 0.382812L10.7236 5.80469C10.9736 6.07812 11.1299 6.14844 11.5361 6.14844H14.5439C15.9658 6.14844 17.1455 6.79688 17.1533 7.66406Z" fill="white"/>
</svg>
