<svg width="15" height="18" viewBox="0 0 15 18" fill="none" xmlns="http://www.w3.org/2000/svg">
<path d="M0.630859 15.2988V2.71289C0.630859 0.963867 1.51855 0.0673828 3.25 0.0673828H8.76074C9.54297 0.0673828 10.0615 0.260742 10.5537 0.770508L14.0605 4.26855C14.5439 4.75195 14.7109 5.20898 14.7109 6.04395V15.2988C14.7109 17.0566 13.832 17.9531 12.0918 17.9531H3.25C1.50977 17.9531 0.630859 17.0654 0.630859 15.2988ZM2.07227 15.2549C2.07227 16.0635 2.50293 16.5117 3.33789 16.5117H11.9951C12.8389 16.5117 13.2695 16.0635 13.2695 15.2549V6.13184C13.2695 5.5957 13.1729 5.31445 12.8916 5.02441L9.85938 1.96582C9.54297 1.64062 9.20898 1.5 8.7168 1.5H3.34668C2.50293 1.5 2.07227 1.95703 2.07227 2.76562V15.2549ZM3.71582 9.98145V8.92676C3.71582 8.20605 4.16406 7.7666 4.86719 7.7666H8.49707V15.1318H6.91504V10.5C6.91504 10.1836 6.73047 9.98145 6.39648 9.98145H3.71582ZM9.45508 15.1318V7.7666H10.4834C11.1865 7.7666 11.6348 8.20605 11.6348 8.92676V13.9805C11.6348 14.6924 11.1865 15.1318 10.4834 15.1318H9.45508ZM3.71582 13.9805V10.9395H5.8252C5.91309 10.9395 5.96582 10.9834 5.96582 11.0713V15.1318H4.86719C4.16406 15.1318 3.71582 14.6924 3.71582 13.9805Z" fill="white"/>
</svg>
