<svg width="23" height="20" viewBox="0 0 23 20" fill="none" xmlns="http://www.w3.org/2000/svg">
<path d="M19.1465 0.949219L21.7734 3.58594C22.0859 3.89844 21.9199 4.29883 21.5293 4.37695L18.2969 5.05078C17.8672 5.13867 17.5938 4.85547 17.6816 4.43555L18.3457 1.20312C18.4336 0.8125 18.834 0.636719 19.1465 0.949219ZM3.74609 11.8281C4.17578 11.8281 4.51758 12.1797 4.51758 12.5996C4.51758 13.0195 4.17578 13.3711 3.74609 13.3711H2.36914C2.52539 14.9531 3.14062 16.3789 4.09766 17.541L5.09375 16.5449C5.38672 16.2422 5.88477 16.2422 6.17773 16.5449C6.48047 16.8379 6.48047 17.3359 6.17773 17.6289L4.83984 18.9668C4.29297 19.5039 3.56055 19.416 3.13086 18.9473C1.59766 17.2676 0.650391 15.0312 0.650391 12.5996C0.650391 7.42383 4.92773 3.13672 10.1035 3.13672C15.2793 3.13672 19.5566 7.42383 19.5566 12.5996C19.5566 15.0312 18.6191 17.2676 17.0762 18.9473C16.6562 19.416 15.9238 19.5039 15.377 18.9668L14.0293 17.6289C13.7266 17.3359 13.7363 16.8379 14.0293 16.5449C14.3223 16.2422 14.8203 16.2422 15.1133 16.5449L16.1094 17.541C17.0664 16.3789 17.6914 14.9531 17.8379 13.3711H16.4316C16.0117 13.3711 15.6602 13.0195 15.6602 12.5996C15.6602 12.1797 16.0117 11.8281 16.4316 11.8281H17.8379C17.4863 8.12695 14.5762 5.20703 10.875 4.8457V6.26172C10.875 6.68164 10.5234 7.0332 10.1035 7.0332C9.68359 7.0332 9.33203 6.68164 9.33203 6.26172V4.8457C7.75 5.00195 6.31445 5.62695 5.16211 6.57422L6.1582 7.57031C6.45117 7.86328 6.45117 8.36133 6.1582 8.6543C5.85547 8.95703 5.36719 8.95703 5.06445 8.6543L4.07812 7.66797C3.13086 8.82031 2.52539 10.2559 2.36914 11.8281H3.74609ZM8.91211 13.8008C8.30664 13.1855 8.30664 12.2969 8.91211 11.6914C9.0293 11.5742 9.27344 11.3984 9.42969 11.291L13.8438 8.24414C14.0781 8.07812 14.3027 8.12695 14.4492 8.26367C14.5859 8.41016 14.6348 8.64453 14.4785 8.86914L11.4316 13.2832C11.3145 13.4395 11.1387 13.6836 11.0312 13.8008C10.416 14.4062 9.52734 14.4062 8.91211 13.8008Z" fill="white"/>
</svg>
