<svg width="20" height="20" viewBox="0 0 20 20" fill="none" xmlns="http://www.w3.org/2000/svg">
<path d="M10.1133 19.793C4.88867 19.793 0.650391 15.5547 0.650391 10.3301C0.650391 5.10547 4.88867 0.867188 10.1133 0.867188C15.3379 0.867188 19.5762 5.10547 19.5762 10.3301C19.5762 15.5547 15.3379 19.793 10.1133 19.793ZM7.57422 8.51367C8.0918 8.68945 8.62891 8.82617 9.16602 8.92383C9.35156 6.57031 10.0645 4.30469 11.2559 2.27344C11.1289 2.26367 11.0117 2.24414 10.8848 2.23438C9.22461 3.72852 7.94531 5.57422 7.13477 7.60547C7.37891 7.83984 7.54492 8.16211 7.57422 8.51367ZM3.31641 5.86719C3.92188 6.47266 4.58594 7 5.29883 7.43945C5.51367 7.29297 5.76758 7.20508 6.05078 7.19531C6.77344 5.36914 7.83789 3.68945 9.20508 2.24414C6.74414 2.51758 4.61523 3.89453 3.31641 5.86719ZM12.9941 5.96484C13.0039 6.6582 13.082 7.3418 13.2285 7.99609C13.6777 8.00586 14.0879 8.23047 14.3516 8.5625C15.4844 8.20117 16.5488 7.64453 17.5059 6.92188C16.6758 5.13477 15.2207 3.69922 13.4238 2.89844C13.1309 3.88477 12.9844 4.91992 12.9941 5.96484ZM11.832 5.97461C11.8223 4.92969 11.9492 3.92383 12.2031 2.94727C11.1289 4.80273 10.4844 6.88281 10.3281 9.06055C10.582 9.07031 10.8359 9.08008 11.0996 9.08008C11.334 9.08008 11.5684 9.07031 11.8027 9.05078C11.8613 8.82617 11.9785 8.63086 12.1348 8.46484C11.9492 7.6543 11.8418 6.82422 11.832 5.97461ZM1.98828 10.3301C1.98828 10.4961 1.98828 10.6621 1.99805 10.8184C2.92578 11.5996 3.92188 12.2441 4.97656 12.7617C4.97656 11.7754 5.08398 10.8086 5.26953 9.86133C4.88867 9.59766 4.64453 9.1582 4.64453 8.66016C4.64453 8.58203 4.6543 8.50391 4.66406 8.43555C3.9707 8.00586 3.31641 7.50781 2.7207 6.94141C2.25195 7.9668 1.98828 9.11914 1.98828 10.3301ZM18.248 10.3301C18.248 9.54883 18.1406 8.78711 17.9258 8.06445C16.9199 8.78711 15.8066 9.33398 14.625 9.70508C14.5664 10.0371 14.3906 10.3301 14.1465 10.5449C14.6934 11.5801 15.416 12.5176 16.2852 13.3184C16.8516 13.1035 17.3984 12.8594 17.9355 12.5664C18.1406 11.8535 18.248 11.1016 18.248 10.3301ZM9.12695 10.1055V10.0859C8.47266 9.98828 7.83789 9.83203 7.22266 9.62695C7.01758 9.87109 6.72461 10.0469 6.40234 10.1055C6.19727 11.1309 6.10938 12.1953 6.13867 13.2695C7.11523 13.6406 8.12109 13.9043 9.14648 14.0605C9.23438 13.8848 9.37109 13.7285 9.51758 13.6016C9.26367 12.4688 9.12695 11.2969 9.12695 10.1055ZM11.0996 10.2422C10.8262 10.2422 10.5527 10.2324 10.2891 10.2227C10.2988 11.2676 10.416 12.293 10.6504 13.2988C11.1777 13.3672 11.6172 13.7285 11.8125 14.2168C12.8965 14.1777 13.9805 14.0117 15.0449 13.7188C14.2246 12.8887 13.541 11.9316 13.0234 10.8867C12.5742 10.8379 12.1934 10.5742 11.959 10.2129C11.6758 10.2324 11.3926 10.2422 11.0996 10.2422ZM2.28125 12.5176C2.79883 14.3535 3.94141 15.9355 5.46484 17C5.20117 16.0332 5.05469 15.0566 5.00586 14.0605C4.05859 13.6504 3.14062 13.1328 2.28125 12.5176ZM10.1133 18.4648C10.5918 18.4648 11.0508 18.416 11.5 18.3477C11.0703 17.6641 10.6992 16.9512 10.377 16.2188C9.76172 16.1895 9.24414 15.7793 9.04883 15.2227C8.08203 15.0859 7.13477 14.8516 6.20703 14.5293C6.30469 15.6621 6.55859 16.7656 6.94922 17.8203C7.92578 18.2305 8.99023 18.4648 10.1133 18.4648ZM11.4707 15.7988C11.8125 16.5801 12.2129 17.332 12.6914 18.0449C14.3125 17.5078 15.709 16.4629 16.6953 15.1055C16.4707 14.959 16.2559 14.8027 16.0508 14.6367C14.6543 15.0859 13.2188 15.3301 11.7734 15.3789C11.6953 15.5352 11.5977 15.6816 11.4707 15.7988Z" fill="white"/>
</svg>
