<svg width="24" height="12" viewBox="0 0 24 12" fill="none" xmlns="http://www.w3.org/2000/svg">
<path d="M0.485352 5.99707C0.485352 2.80664 2.52441 0.714844 5.53027 0.714844C7.1123 0.714844 8.45703 1.38281 9.88086 2.7627L11.8145 4.62598L13.748 2.7627C15.1719 1.38281 16.5166 0.714844 18.0986 0.714844C21.1045 0.714844 23.1436 2.80664 23.1436 5.99707C23.1436 9.1875 21.1045 11.2793 18.0986 11.2793C16.5166 11.2793 15.1719 10.6113 13.748 9.23145L11.8145 7.36816L9.88086 9.23145C8.45703 10.6113 7.1123 11.2793 5.53027 11.2793C2.52441 11.2793 0.485352 9.1875 0.485352 5.99707ZM2.49805 5.99707C2.49805 7.99219 3.71973 9.27539 5.53027 9.27539C6.54102 9.27539 7.4375 8.77441 8.47461 7.80762L10.3994 5.99707L8.47461 4.18652C7.44629 3.21973 6.54102 2.71875 5.53027 2.71875C3.71973 2.71875 2.49805 4.00195 2.49805 5.99707ZM13.2295 5.99707L15.1543 7.80762C16.1826 8.77441 17.0879 9.27539 18.0986 9.27539C19.9092 9.27539 21.1309 7.99219 21.1309 5.99707C21.1309 4.00195 19.9092 2.71875 18.0986 2.71875C17.0879 2.71875 16.1826 3.21973 15.1543 4.18652L13.2295 5.99707Z" fill="white"/>
</svg>
