<svg width="20" height="20" viewBox="0 0 20 20" fill="none" xmlns="http://www.w3.org/2000/svg">
<path d="M10.1133 19.793C4.88867 19.793 0.650391 15.5547 0.650391 10.3301C0.650391 5.10547 4.88867 0.867188 10.1133 0.867188C15.3379 0.867188 19.5762 5.10547 19.5762 10.3301C19.5762 15.5547 15.3379 19.793 10.1133 19.793ZM10.1133 18.123C14.4199 18.123 17.9062 14.6367 17.9062 10.3301C17.9062 6.02344 14.4199 2.53711 10.1133 2.53711C5.80664 2.53711 2.33008 6.02344 2.33008 10.3301C2.33008 14.6367 5.80664 18.123 10.1133 18.123ZM9.10742 14.7148C8.78516 14.7148 8.54102 14.5879 8.29688 14.2754L6.07031 11.541C5.92383 11.3652 5.8457 11.1602 5.8457 10.9551C5.8457 10.5254 6.16797 10.1934 6.58789 10.1934C6.85156 10.1934 7.06641 10.2715 7.28125 10.5645L9.06836 12.8691L12.8477 6.81445C13.0234 6.53125 13.2578 6.38477 13.5117 6.38477C13.9121 6.38477 14.293 6.6582 14.293 7.08789C14.293 7.29297 14.1758 7.50781 14.0684 7.69336L9.86914 14.2754C9.68359 14.5586 9.41992 14.7148 9.10742 14.7148Z" fill="white"/>
</svg>
