<svg width="24" height="25" viewBox="0 0 24 25" fill="none" xmlns="http://www.w3.org/2000/svg">
<path d="M11.8916 24.4912C5.36084 24.4912 0.0629883 19.1934 0.0629883 12.6626C0.0629883 6.13184 5.36084 0.833984 11.8916 0.833984C18.4224 0.833984 23.7202 6.13184 23.7202 12.6626C23.7202 19.1934 18.4224 24.4912 11.8916 24.4912ZM11.8916 22.4038C17.2749 22.4038 21.6328 18.0459 21.6328 12.6626C21.6328 7.2793 17.2749 2.92139 11.8916 2.92139C6.5083 2.92139 2.1626 7.2793 2.1626 12.6626C2.1626 18.0459 6.5083 22.4038 11.8916 22.4038ZM11.8794 19.0591C11.6719 19.0591 11.5132 18.8882 11.5132 18.6807V17.6797C10.085 17.582 8.64453 16.9229 8.22949 15.5557C8.19287 15.4214 8.15625 15.2871 8.15625 15.1772C8.15625 14.7744 8.44922 14.5425 8.81543 14.5425C9.13281 14.5425 9.34033 14.7012 9.48682 15.0552C9.84082 15.9951 10.5244 16.4102 11.5132 16.4956V13.0898L11.1958 13.0288C9.76758 12.687 8.32715 12.0278 8.32715 10.3066C8.32715 8.62207 9.79199 7.62109 11.5132 7.48682V6.51025C11.5132 6.30273 11.6719 6.13184 11.8794 6.13184C12.0869 6.13184 12.2578 6.30273 12.2578 6.51025V7.48682C13.8203 7.6333 15.4316 8.62207 15.4316 9.98926C15.4316 10.4165 15.0898 10.6118 14.7847 10.6118C14.4429 10.6118 14.2231 10.4287 14.0889 10.0747C13.8203 9.24463 13.1733 8.76855 12.2578 8.6709V11.9302L12.6362 12.0156C14.2231 12.394 15.6147 13.0532 15.6147 14.7988C15.6147 16.6665 14.0767 17.582 12.2578 17.6797V18.6807C12.2578 18.8882 12.0869 19.0591 11.8794 19.0591ZM9.69434 10.1968C9.69434 11.1123 10.5244 11.5273 11.5132 11.7471V8.68311C10.5732 8.78076 9.69434 9.26904 9.69434 10.1968ZM12.3066 13.2852L12.2578 13.2729V16.4956C13.2954 16.4224 14.2598 16.0073 14.2598 14.9087C14.2598 13.8711 13.332 13.5293 12.3066 13.2852Z" fill="white"/>
</svg>
