<svg width="24" height="25" viewBox="0 0 24 25" fill="none" xmlns="http://www.w3.org/2000/svg">
<path d="M11.8916 24.5034C5.37305 24.5034 0.0629883 19.2056 0.0629883 12.6748C0.0629883 6.15625 5.37305 0.846191 11.8916 0.846191C18.4224 0.846191 23.7202 6.15625 23.7202 12.6748C23.7202 19.2056 18.4224 24.5034 11.8916 24.5034ZM11.8916 12.3086C13.5884 12.3208 14.9434 10.8682 14.9434 8.96387C14.9434 7.19385 13.5884 5.70459 11.8916 5.70459C10.207 5.70459 8.83984 7.19385 8.83984 8.96387C8.83984 10.8682 10.207 12.2964 11.8916 12.3086ZM6.5083 18.7173H17.2871C17.7876 18.7173 18.0195 18.3877 18.0195 17.936C18.0195 16.6421 16.0664 13.2729 11.8916 13.2729C7.7168 13.2729 5.77588 16.6421 5.77588 17.936C5.77588 18.3877 6.00781 18.7173 6.5083 18.7173Z" fill="white"/>
</svg>
