<svg width="40" height="26" viewBox="0 0 40 26" fill="none" xmlns="http://www.w3.org/2000/svg">
<path d="M10.9511 1.94397C11.6474 0.741133 12.9326 0.00120571 14.3225 0.00296473L39.1923 0.0344402C39.3287 0.0346129 39.4135 0.182681 39.3447 0.300467L36.6303 4.94508C35.9328 6.13857 34.6542 6.87221 33.2719 6.87221H8.4048C8.2686 6.87221 8.18355 6.72469 8.25178 6.60682L10.9511 1.94397Z" fill="white"/>
<path d="M6.21259 11.1065C6.90892 9.90361 8.19411 9.16368 9.58397 9.16544L34.4537 9.19692C34.5902 9.19709 34.675 9.34516 34.6062 9.46294L31.8917 14.1076C31.1942 15.301 29.9157 16.0347 28.5334 16.0347H3.66628C3.53008 16.0347 3.44502 15.8872 3.51326 15.7693L6.21259 11.1065Z" fill="white"/>
<path d="M2.06631 20.8084C2.8357 19.2258 4.44101 18.2213 6.20072 18.2213H16.8413C16.9781 18.2213 17.0631 18.3701 16.9936 18.4879L14.4533 22.7964C13.6267 24.1983 12.1206 25.0587 10.4932 25.0587H0.282558C0.151978 25.0587 0.0664493 24.922 0.123543 24.8046L2.06631 20.8084Z" fill="white"/>
</svg>
