<svg width="30" height="30" viewBox="0 0 30 30" fill="none" xmlns="http://www.w3.org/2000/svg">
<rect width="30" height="30" rx="7" fill="#34C759"/>
<path d="M15 23.4736C10.3267 23.4736 6.5332 19.6802 6.5332 15.0068C6.5332 10.3335 10.3267 6.54004 15 6.54004C19.6733 6.54004 23.4668 10.3335 23.4668 15.0068C23.4668 19.6802 19.6733 23.4736 15 23.4736ZM15 22.3447C19.0508 22.3447 22.3379 19.0576 22.3379 15.0068C22.3379 12.5 21.0845 10.292 19.167 8.96387C18.5859 10.0845 16.9092 10.9644 16.0625 11.3794C16.2949 11.7446 16.4526 12.0269 16.4526 12.3091C16.4526 12.8486 16.1621 13.2222 15.6226 13.2222C14.9751 13.2222 14.3359 12.5415 13.9292 12.5415C13.6968 12.5415 13.4976 12.6743 13.4976 12.9067C13.4976 13.3135 14.5601 14.2432 15.0332 14.2432C15.5063 14.2432 16.1621 13.6621 16.5688 13.6621C17.5068 13.6621 19.2998 15.231 19.2998 16.0361C19.2998 17.4639 16.3945 21.2822 15.332 21.2822C14.8091 21.2822 14.2197 20.7759 14.2197 20.3193C14.2197 19.813 14.5435 19.3979 14.5352 18.8501C14.5352 18.543 14.2114 18.4019 12.8667 17.3892C12.4351 17.0737 12.2358 16.7168 12.2358 16.3018C12.2358 15.8452 12.6343 15.5962 12.6343 15.2393C12.6343 15.0234 12.4102 14.8657 12.0283 14.5254L10.8164 13.4712C9.6709 12.4834 9.00684 11.5371 9.07324 10.6821C8.18506 11.894 7.66211 13.3882 7.66211 15.0068C7.66211 19.0576 10.9492 22.3447 15 22.3447Z" fill="white"/>
</svg>
