<svg width="30" height="30" viewBox="0 0 30 30" fill="none" xmlns="http://www.w3.org/2000/svg">
<rect width="30" height="30" rx="7" fill="#FBB935"/>
<path d="M15 23.4736C10.3267 23.4736 6.5332 19.6802 6.5332 15.0068C6.5332 10.3335 10.3267 6.54004 15 6.54004C19.6733 6.54004 23.4668 10.3335 23.4668 15.0068C23.4668 19.6802 19.6733 23.4736 15 23.4736ZM15 22.0625C18.9014 22.0625 22.0557 18.9082 22.0557 15.0068C22.0557 11.1055 18.9014 7.95117 15 7.95117C11.0986 7.95117 7.94434 11.1055 7.94434 15.0068C7.94434 18.9082 11.0986 22.0625 15 22.0625ZM12.103 12.6079C12.103 11.1138 13.373 9.98486 14.9834 9.98486C16.6021 9.98486 17.8804 11.1553 17.8804 12.6494C17.8804 14.3013 16.7764 14.6665 16.6104 17.5303C16.6021 17.6963 16.5024 17.7959 16.3364 17.7959H13.6304C13.481 17.7959 13.3896 17.6963 13.373 17.5303C13.1987 14.6665 12.103 14.2598 12.103 12.6079ZM13.73 18.8999C13.5474 18.8999 13.3979 18.7422 13.3979 18.5596C13.3979 18.377 13.5474 18.2275 13.73 18.2275H16.2534C16.436 18.2275 16.5938 18.377 16.5938 18.5596C16.5938 18.7422 16.436 18.8999 16.2534 18.8999H13.73ZM14.9917 20.0205C14.394 20.0205 13.9458 19.7466 13.9043 19.3232H16.0791C16.0293 19.7466 15.5894 20.0205 14.9917 20.0205Z" fill="white"/>
</svg>
