<svg width="30" height="30" viewBox="0 0 30 30" fill="none" xmlns="http://www.w3.org/2000/svg">
<rect width="30" height="30" rx="7" fill="#007AFF"/>
<path d="M15 23.4736C10.335 23.4736 6.5332 19.6719 6.5332 15.0068C6.5332 10.3335 10.335 6.54004 15 6.54004C19.6733 6.54004 23.4668 10.3335 23.4668 15.0068C23.4668 19.6719 19.6733 23.4736 15 23.4736ZM10.8496 12.9233C11.2563 12.9233 11.5884 12.583 11.5884 12.1846C11.5884 11.7695 11.2646 11.4458 10.8496 11.4458C10.4429 11.4458 10.1191 11.7695 10.1191 12.1846C10.1191 12.5913 10.4429 12.9233 10.8496 12.9233ZM12.9165 12.7075H19.3247C19.6235 12.7075 19.856 12.4751 19.856 12.1846C19.856 11.894 19.6235 11.6699 19.3247 11.6699H12.9165C12.6177 11.6699 12.4019 11.894 12.4019 12.1846C12.4019 12.4668 12.6343 12.7075 12.9165 12.7075ZM10.8496 15.7539C11.2563 15.7539 11.5884 15.4219 11.5884 15.0151C11.5884 14.6084 11.2563 14.2764 10.8496 14.2764C10.4429 14.2764 10.1191 14.6001 10.1191 15.0151C10.1191 15.4302 10.4429 15.7539 10.8496 15.7539ZM12.9165 15.5381H19.3247C19.6235 15.5381 19.856 15.3057 19.856 15.0151C19.856 14.7246 19.6235 14.5005 19.3247 14.5005H12.9165C12.6343 14.5005 12.4019 14.7329 12.4019 15.0151C12.4019 15.2974 12.6343 15.5381 12.9165 15.5381ZM10.8496 18.5845C11.2646 18.5845 11.5884 18.2607 11.5884 17.8457C11.5884 17.4473 11.2563 17.1069 10.8496 17.1069C10.4429 17.1069 10.1191 17.439 10.1191 17.8457C10.1191 18.2607 10.4429 18.5845 10.8496 18.5845ZM12.9165 18.3687H19.3247C19.6235 18.3687 19.856 18.1362 19.856 17.8457C19.856 17.5552 19.6235 17.3311 19.3247 17.3311H12.9165C12.6343 17.3311 12.4019 17.5635 12.4019 17.8457C12.4019 18.1362 12.6177 18.3687 12.9165 18.3687Z" fill="white"/>
</svg>
