<svg width="39" height="39" viewBox="0 0 39 39" fill="none" xmlns="http://www.w3.org/2000/svg">
<path d="M19.4805 38.5859C9.05078 38.5859 0.554688 30.0898 0.554688 19.6602C0.554688 9.21094 9.05078 0.734375 19.4805 0.734375C29.9297 0.734375 38.4062 9.21094 38.4062 19.6602C38.4062 30.0898 29.9297 38.5859 19.4805 38.5859ZM17.4297 28.7227C18.0742 28.7227 18.6211 28.4102 19.0117 27.7852L27.7031 14.1914C27.9375 13.8008 28.1719 13.3516 28.1719 12.9414C28.1719 12.043 27.3906 11.457 26.5312 11.457C26.0039 11.457 25.5156 11.75 25.1641 12.3555L17.3516 24.875L13.6602 20.1289C13.2109 19.5234 12.7812 19.3477 12.2344 19.3477C11.3555 19.3477 10.6719 20.0508 10.6719 20.9297C10.6719 21.3594 10.8477 21.7891 11.1406 22.1602L15.7305 27.8047C16.2383 28.4492 16.7656 28.7227 17.4297 28.7227Z" fill="#42C12F"/>
</svg>
