<svg width="50" height="50" viewBox="0 0 50 50" fill="none" xmlns="http://www.w3.org/2000/svg">
<circle cx="25" cy="25" r="25" fill="url(#paint0_linear_1_733)"/>
<path d="M25.1694 36.561C18.5081 36.561 13.1042 31.1572 13.1042 24.4958C13.1042 17.8345 18.5081 12.4307 25.1694 12.4307C31.8308 12.4307 37.2346 17.8345 37.2346 24.4958C37.2346 31.1572 31.8308 36.561 25.1694 36.561ZM25.1694 34.8677C30.897 34.8677 35.5413 30.2234 35.5413 24.4958C35.5413 20.9597 33.7607 17.822 31.0464 15.9543C30.2246 17.5232 27.8589 18.7434 26.676 19.3286C26.9998 19.8516 27.2239 20.25 27.2239 20.6484C27.2239 21.408 26.8254 21.9434 26.0535 21.9434C25.1321 21.9434 24.2231 20.9722 23.6504 20.9722C23.3267 20.9722 23.0403 21.1589 23.0403 21.4827C23.0403 22.0679 24.5469 23.3877 25.2192 23.3877C25.8792 23.3877 26.8005 22.5535 27.3857 22.5535C28.718 22.5535 31.2581 24.7822 31.2581 25.9153C31.2581 27.9448 27.1367 33.3486 25.6426 33.3486C24.8955 33.3486 24.0488 32.6389 24.0488 31.9915C24.0488 31.2817 24.522 30.6841 24.5095 29.9121C24.5095 29.4763 24.0488 29.2771 22.1438 27.8452C21.5337 27.3845 21.2473 26.8989 21.2473 26.3013C21.2473 25.6538 21.8201 25.2927 21.8201 24.7947C21.8201 24.4958 21.5088 24.2593 20.9609 23.7861L19.2427 22.292C17.6365 20.8975 16.7275 19.5901 16.8022 18.3823C15.5447 20.1006 14.8101 22.2048 14.8101 24.4958C14.8101 30.2234 19.4543 34.8677 25.1694 34.8677Z" fill="white"/>
<defs>
<linearGradient id="paint0_linear_1_733" x1="6.70904" y1="-15.8654" x2="55.8535" y2="-13.6441" gradientUnits="userSpaceOnUse">
<stop stop-color="#2875FF"/>
<stop offset="1" stop-color="#0059F9"/>
</linearGradient>
</defs>
</svg>
