<svg width="50" height="50" viewBox="0 0 50 50" fill="none" xmlns="http://www.w3.org/2000/svg">
<circle cx="25" cy="25" r="25" fill="url(#paint0_linear_1_717)"/>
<path d="M33.7598 16.3264C35.8594 16.3264 36.9197 17.3867 36.9197 19.4548V20.3682H13.53V19.4548C13.53 17.3762 14.6008 16.3264 16.7004 16.3264H33.7598ZM17.6243 30.2468H20.0493C20.6372 30.2468 21.0256 29.8584 21.0256 29.302V27.4543C21.0256 26.8979 20.6372 26.5095 20.0493 26.5095H17.6243C17.0364 26.5095 16.6479 26.8979 16.6479 27.4543V29.302C16.6479 29.8584 17.0364 30.2468 17.6243 30.2468ZM16.7004 33.3647C14.6008 33.3647 13.53 32.3149 13.53 30.2363V22.6462H36.9197V30.2363C36.9197 32.3044 35.8594 33.3647 33.7598 33.3647H16.7004Z" fill="white"/>
<defs>
<linearGradient id="paint0_linear_1_717" x1="6.70904" y1="-15.8654" x2="55.8535" y2="-13.6441" gradientUnits="userSpaceOnUse">
<stop stop-color="#2875FF"/>
<stop offset="1" stop-color="#0059F9"/>
</linearGradient>
</defs>
</svg>
