<svg width="50" height="50" viewBox="0 0 50 50" fill="none" xmlns="http://www.w3.org/2000/svg">
<circle cx="25" cy="25" r="25" fill="url(#paint0_linear_1_725)"/>
<path d="M19.79 35.6094C17.6631 35.6094 16.5889 34.5244 16.5889 32.3652V16.9824C16.5889 14.8447 17.6738 13.749 19.79 13.749H26.5254C27.4814 13.749 28.1152 13.9854 28.7168 14.6084L33.0029 18.8838C33.5938 19.4746 33.7979 20.0332 33.7979 21.0537V32.3652C33.7979 34.5137 32.7236 35.6094 30.5967 35.6094H19.79ZM20.3164 25.8877H23.6357C24.0439 25.8877 24.2695 26.1348 24.2695 26.5215V32.2256H26.2031V23.1377H21.7344C20.8535 23.1377 20.3164 23.6748 20.3164 24.5664V25.8877ZM27.374 32.2256H28.6631C29.5439 32.2256 30.0811 31.6885 30.0811 30.7969V24.5664C30.0811 23.6748 29.5439 23.1377 28.6631 23.1377H27.374V32.2256ZM20.3164 30.7969C20.3164 31.6885 20.8535 32.2256 21.7344 32.2256H23.1094V27.2197C23.1094 27.1123 23.0449 27.0586 22.9375 27.0586H20.3164V30.7969Z" fill="white"/>
<defs>
<linearGradient id="paint0_linear_1_725" x1="6.70904" y1="-15.8654" x2="55.8535" y2="-13.6441" gradientUnits="userSpaceOnUse">
<stop stop-color="#2875FF"/>
<stop offset="1" stop-color="#0059F9"/>
</linearGradient>
</defs>
</svg>
