<svg width="30" height="30" viewBox="0 0 30 30" fill="none" xmlns="http://www.w3.org/2000/svg">
<rect width="30" height="30" rx="7" fill="#007AFF"/>
<path d="M14.7363 23.6812C14.3047 23.6812 13.9976 23.4238 13.8896 23.0005L13.458 21.1743C13.1343 21.0664 12.8271 20.9419 12.5449 20.8091L10.9512 21.7886C10.5942 22.0127 10.1792 21.9795 9.88037 21.6807L8.81787 20.6182C8.51904 20.3193 8.46924 19.8877 8.71826 19.5308L9.68945 17.9453C9.55664 17.6548 9.43213 17.356 9.34082 17.0571L7.49805 16.6172C7.07471 16.5176 6.82568 16.2104 6.82568 15.7788V14.2764C6.82568 13.853 7.07471 13.5459 7.49805 13.4463L9.32422 13.0063C9.43213 12.666 9.56494 12.3589 9.67285 12.1016L8.70166 10.4912C8.46924 10.126 8.49414 9.73584 8.80127 9.42871L9.88037 8.35791C10.1792 8.05908 10.5693 8.00928 10.9263 8.2334L12.5366 9.22949C12.8188 9.08008 13.1343 8.95557 13.458 8.84766L13.8896 7.01318C13.9976 6.58984 14.3047 6.33252 14.7363 6.33252H16.2637C16.6953 6.33252 17.0024 6.58984 17.1021 7.01318L17.5337 8.86426C17.874 8.97217 18.1812 9.09668 18.4468 9.23779L20.0737 8.2334C20.4307 8.00928 20.8042 8.07568 21.1113 8.35791L22.1987 9.42871C22.5059 9.73584 22.5225 10.126 22.2983 10.4912L21.3188 12.1016C21.4351 12.3589 21.5679 12.666 21.6758 13.0063L23.502 13.4463C23.9253 13.5459 24.1743 13.853 24.1743 14.2764V15.7788C24.1743 16.2104 23.9253 16.5176 23.502 16.6172L21.6592 17.0571C21.5679 17.356 21.4434 17.6548 21.3022 17.9453L22.2817 19.5308C22.5225 19.8877 22.481 20.3193 22.1821 20.6182L21.1113 21.6807C20.8125 21.9795 20.4058 22.0127 20.0488 21.7886L18.4468 20.8091C18.1729 20.9419 17.8574 21.0664 17.5337 21.1743L17.1021 23.0005C17.0024 23.4238 16.6953 23.6812 16.2637 23.6812H14.7363ZM15.5 17.937C17.1187 17.937 18.4302 16.6255 18.4302 15.0068C18.4302 13.3882 17.1187 12.0767 15.5 12.0767C13.8813 12.0767 12.5698 13.3882 12.5698 15.0068C12.5698 16.6255 13.8813 17.937 15.5 17.937Z" fill="white"/>
</svg>
