<svg width="30" height="30" viewBox="0 0 30 30" fill="none" xmlns="http://www.w3.org/2000/svg">
<rect width="30" height="30" rx="7" fill="#34C759"/>
<path d="M8.87402 23.6646C8.23486 23.6646 8.05225 23.1416 8.37598 22.7266C8.69141 22.3115 9.52148 21.3984 9.98633 20.6348C10.0527 20.5103 10.0112 20.3857 9.88672 20.3193C7.22217 18.8916 5.58691 16.5591 5.58691 13.9028C5.58691 9.72754 9.77051 6.35742 15 6.35742C20.2295 6.35742 24.4131 9.72754 24.4131 13.9028C24.4131 18.0366 20.4453 21.4399 14.4604 21.4399C14.3525 21.4399 14.2446 21.4316 14.1367 21.4233C14.0205 21.4233 13.9043 21.4648 13.7632 21.5645C12.3521 22.5771 9.87012 23.6646 8.87402 23.6646Z" fill="white"/>
</svg>
