<svg width="60" height="26" viewBox="0 0 60 26" fill="none" xmlns="http://www.w3.org/2000/svg">
<g clip-path="url(#clip0_1_507)">
<path d="M10.9687 3.96167C10.2656 4.7937 9.14059 5.44995 8.01559 5.3562C7.87496 4.2312 8.42574 3.03589 9.07028 2.29761C9.7734 1.44214 11.0039 0.832764 12 0.785889C12.1172 1.95776 11.6601 3.1062 10.9687 3.96167ZM11.9882 5.57886C10.3593 5.48511 8.96481 6.50464 8.19137 6.50464C7.40621 6.50464 6.22262 5.62573 4.93356 5.64917C3.25777 5.67261 1.69918 6.62183 0.843712 8.13355C-0.9141 11.157 0.386681 15.6335 2.0859 18.0945C2.91793 19.3132 3.91402 20.6492 5.22652 20.6023C6.46871 20.5554 6.9609 19.7937 8.4609 19.7937C9.97262 19.7937 10.4062 20.6023 11.7187 20.5789C13.0781 20.5554 13.9336 19.3601 14.7656 18.1414C15.7148 16.7585 16.1015 15.4109 16.125 15.3406C16.1015 15.3171 13.5 14.321 13.4765 11.321C13.4531 8.81323 15.5273 7.61792 15.6211 7.54761C14.4492 5.81323 12.6211 5.62573 11.9882 5.57886ZM21.3984 2.18042V20.45H24.2343V14.2039H28.1601C31.7461 14.2039 34.2656 11.7429 34.2656 8.18042C34.2656 4.61792 31.7929 2.18042 28.2539 2.18042H21.3984ZM24.2343 4.57105H27.5039C29.9648 4.57105 31.3711 5.88355 31.3711 8.19214C31.3711 10.5007 29.9648 11.825 27.4922 11.825H24.2343V4.57105ZM39.4453 20.5906C41.2265 20.5906 42.8789 19.6882 43.6289 18.2585H43.6875V20.45H46.3125V11.3562C46.3125 8.71948 44.2031 7.02026 40.957 7.02026C37.9453 7.02026 35.7187 8.74292 35.6367 11.1101H38.1914C38.4023 9.98511 39.4453 9.24683 40.875 9.24683C42.6093 9.24683 43.582 10.0554 43.582 11.5437V12.5515L40.0429 12.7625C36.75 12.9617 34.9687 14.3093 34.9687 16.6531C34.9687 19.0203 36.8086 20.5906 39.4453 20.5906ZM40.207 18.4226C38.6953 18.4226 37.7343 17.696 37.7343 16.5828C37.7343 15.4343 38.6601 14.7664 40.4296 14.6609L43.582 14.4617V15.4929C43.582 17.2039 42.1289 18.4226 40.207 18.4226ZM49.8164 25.4187C52.582 25.4187 53.8828 24.364 55.0195 21.1648L60 7.19605H57.1171L53.7773 17.989H53.7187L50.3789 7.19605H47.414L52.2187 20.4968L51.9609 21.3054C51.5273 22.6765 50.8242 23.2039 49.5703 23.2039C49.3476 23.2039 48.914 23.1804 48.7382 23.157V25.3484C48.9023 25.3953 49.6054 25.4187 49.8164 25.4187Z" fill="white"/>
</g>
<defs>
<clipPath id="clip0_1_507">
<rect width="60" height="24.6328" fill="white" transform="translate(0 0.785156)"/>
</clipPath>
</defs>
</svg>
