<svg width="9" height="15" viewBox="0 0 9 15" fill="none" xmlns="http://www.w3.org/2000/svg">
<path d="M8.17285 7.33057C8.17285 7.62939 8.06494 7.87842 7.83252 8.11084L1.75635 14.0542C1.56543 14.2451 1.33301 14.3447 1.05908 14.3447C0.494629 14.3447 0.0546875 13.9048 0.0546875 13.3486C0.0546875 13.0664 0.170898 12.8257 0.361816 12.6265L5.79883 7.33057L0.361816 2.03467C0.170898 1.83545 0.0546875 1.58643 0.0546875 1.3125C0.0546875 0.756348 0.494629 0.316406 1.05908 0.316406C1.33301 0.316406 1.56543 0.416016 1.75635 0.606934L7.83252 6.55029C8.06494 6.78271 8.17285 7.03174 8.17285 7.33057Z" fill="black"/>
</svg>
