<svg width="23" height="19" viewBox="0 0 23 19" fill="none" xmlns="http://www.w3.org/2000/svg">
<path d="M0.941895 9.63818C0.941895 9.27197 1.10059 8.89355 1.38135 8.63721L8.94971 1.05664C9.26709 0.763672 9.59668 0.617188 9.93848 0.617188C10.7319 0.617188 11.2812 1.17871 11.2812 1.92334C11.2812 2.31396 11.1226 2.64355 10.8784 2.8999L8.29053 5.51221L5.10449 8.42969L7.74121 8.2832H21.5352C22.3652 8.2832 22.9268 8.83252 22.9268 9.63818C22.9268 10.4561 22.3652 11.0054 21.5352 11.0054H7.74121L5.09229 10.8589L8.29053 13.7764L10.8784 16.3887C11.1226 16.6328 11.2812 16.9746 11.2812 17.3652C11.2812 18.1099 10.7319 18.6592 9.93848 18.6592C9.59668 18.6592 9.26709 18.5249 8.97412 18.2441L1.38135 10.6514C1.10059 10.395 0.941895 10.0166 0.941895 9.63818Z" fill="black"/>
</svg>
