<svg width="14" height="9" viewBox="0 0 14 9" fill="none" xmlns="http://www.w3.org/2000/svg">
<path opacity="0.4" d="M7.33594 8.16406C7.13281 8.16406 6.94531 8.08594 6.78906 7.92969L1.09375 2.10156C0.953125 1.96094 0.875 1.78125 0.875 1.57813C0.875 1.16406 1.19531 0.84375 1.61719 0.84375C1.82031 0.84375 2 0.921875 2.14062 1.05469L7.33594 6.375L12.5391 1.05469C12.6719 0.921875 12.8594 0.84375 13.0625 0.84375C13.4766 0.84375 13.7969 1.16406 13.7969 1.57813C13.7969 1.78125 13.7188 1.96094 13.5781 2.10156L7.88281 7.92969C7.72656 8.08594 7.54688 8.16406 7.33594 8.16406Z" fill="#363C45"/>
</svg>
