<svg width="39" height="39" viewBox="0 0 39 39" fill="none" xmlns="http://www.w3.org/2000/svg">
<path d="M19.4805 38.5859C9.05078 38.5859 0.554688 30.0898 0.554688 19.6602C0.554688 9.21094 9.05078 0.734375 19.4805 0.734375C29.9297 0.734375 38.4062 9.21094 38.4062 19.6602C38.4062 30.0898 29.9297 38.5859 19.4805 38.5859ZM19.4805 23.0195C20.457 23.0195 21.0039 22.4727 21.043 21.4375L21.2969 11.6523C21.3359 10.6172 20.5352 9.85547 19.4609 9.85547C18.3867 9.85547 17.625 10.5977 17.6641 11.6328L17.8984 21.4375C17.9375 22.4531 18.4844 23.0195 19.4805 23.0195ZM19.4805 29.2695C20.6328 29.2695 21.6094 28.3906 21.6094 27.2383C21.6094 26.1055 20.6523 25.207 19.4805 25.207C18.3281 25.207 17.3516 26.1055 17.3516 27.2383C17.3516 28.3711 18.3477 29.2695 19.4805 29.2695Z" fill="#1F6FFF"/>
</svg>
