<svg width="23" height="17" viewBox="0 0 23 17" fill="none" xmlns="http://www.w3.org/2000/svg">
<path d="M3.30273 16.2695C1.34961 16.2695 0.353516 15.293 0.353516 13.3594V3.33008C0.353516 1.39648 1.34961 0.419922 3.30273 0.419922H19.1719C21.125 0.419922 22.1113 1.40625 22.1113 3.33008V13.3594C22.1113 15.2832 21.125 16.2695 19.1719 16.2695H3.30273ZM1.95508 3.42773V4.14062H20.5195V3.42773C20.5195 2.49023 20.0117 2.01172 19.123 2.01172H3.35156C2.45312 2.01172 1.95508 2.49023 1.95508 3.42773ZM3.35156 14.668H19.123C20.0117 14.668 20.5195 14.1895 20.5195 13.252V6.25977H1.95508V13.252C1.95508 14.1895 2.45312 14.668 3.35156 14.668ZM4.58203 12.9395C4.04492 12.9395 3.67383 12.5781 3.67383 12.0605V10.3516C3.67383 9.82422 4.04492 9.46289 4.58203 9.46289H6.84766C7.39453 9.46289 7.75586 9.82422 7.75586 10.3516V12.0605C7.75586 12.5781 7.39453 12.9395 6.84766 12.9395H4.58203Z" fill="white"/>
</svg>
