<svg width="32" height="32" viewBox="0 0 32 32" fill="none" xmlns="http://www.w3.org/2000/svg">
<g clip-path="url(#clip0_1_1154)">
<path d="M16 32C24.8366 32 32 24.8366 32 16C32 7.16344 24.8366 0 16 0C7.16344 0 0 7.16344 0 16C0 24.8366 7.16344 32 16 32Z" fill="#D80027"/>
<path d="M8.75625 9.7373L10.1375 13.9873H14.6062L10.9937 16.6186L12.375 20.8686L8.75625 18.2436L5.1375 20.8686L6.525 16.6186L2.90625 13.9873H7.375L8.75625 9.7373Z" fill="#FFDA44"/>
<path d="M18.9689 24.7809L17.9127 23.4809L16.3502 24.0872L17.2564 22.6809L16.2002 21.3747L17.8189 21.8059L18.7314 20.3997L18.8189 22.0747L20.4439 22.5059L18.8752 23.1059L18.9689 24.7809Z" fill="#FFDA44"/>
<path d="M21.0689 20.9684L21.5689 19.3684L20.2002 18.3997L21.8752 18.3747L22.3689 16.7747L22.9127 18.3622L24.5877 18.3434L23.2439 19.3434L23.7814 20.9309L22.4127 19.9622L21.0689 20.9684Z" fill="#FFDA44"/>
<path d="M23.8998 11.7435L23.1623 13.2497L24.3623 14.4185L22.7061 14.181L21.9686 15.681L21.6811 14.031L20.0186 13.7935L21.5061 13.0122L21.2186 11.356L22.4186 12.5247L23.8998 11.7435Z" fill="#FFDA44"/>
<path d="M19.0129 7.18091L18.8879 8.84966L20.4441 9.48091L18.8129 9.88091L18.6941 11.5559L17.8129 10.1309L16.1816 10.5309L17.2629 9.24966L16.3754 7.83091L17.9316 8.46216L19.0129 7.18091Z" fill="#FFDA44"/>
</g>
<defs>
<clipPath id="clip0_1_1154">
<rect width="32" height="32" fill="white"/>
</clipPath>
</defs>
</svg>
