<svg width="35" height="27" viewBox="0 0 35 27" fill="none" xmlns="http://www.w3.org/2000/svg">
<path opacity="0.3" d="M30.2031 0.671875C33.3281 0.671875 34.9062 2.25 34.9062 5.32812V6.6875H0.09375V5.32812C0.09375 2.23438 1.6875 0.671875 4.8125 0.671875H30.2031ZM6.1875 21.3906H9.79688C10.6719 21.3906 11.25 20.8125 11.25 19.9844V17.2344C11.25 16.4062 10.6719 15.8281 9.79688 15.8281H6.1875C5.3125 15.8281 4.73438 16.4062 4.73438 17.2344V19.9844C4.73438 20.8125 5.3125 21.3906 6.1875 21.3906ZM4.8125 26.0312C1.6875 26.0312 0.09375 24.4688 0.09375 21.375V10.0781H34.9062V21.375C34.9062 24.4531 33.3281 26.0312 30.2031 26.0312H4.8125Z" fill="#3B6792"/>
</svg>
