<svg width="66" height="14" viewBox="0 0 66 14" fill="none" xmlns="http://www.w3.org/2000/svg">
<path d="M3.85547 6.38184V7.66504C3.85547 9.7041 4.68164 10.8203 6.13184 10.8203C7.44141 10.8203 8.22363 9.88867 8.23242 8.62305H11.0098V8.97461C11.0098 11.5146 8.95312 13.2197 6.10547 13.2197C2.76562 13.2197 0.893555 11.0664 0.893555 7.64746V6.38184C0.893555 2.94531 2.76562 0.791992 6.10547 0.791992C8.96191 0.791992 11.0098 2.51465 11.0098 5.10742V5.4502H8.23242C8.22363 4.14062 7.44141 3.19141 6.13184 3.19141C4.68164 3.19141 3.85547 4.31641 3.85547 6.38184ZM17.8916 1.00293C20.8535 1.00293 22.3125 2.67285 22.3125 4.93164C22.3125 6.90918 20.9854 7.98145 20.168 8.31543L22.5586 13H19.3418L17.3115 8.71973H15.668V13H12.8115V1.00293H17.8916ZM15.668 6.66309H17.4346C18.5596 6.66309 19.3154 6.0918 19.3154 4.95801C19.3154 3.77148 18.498 3.18262 17.4609 3.18262H15.668V6.66309ZM29.5459 13H26.6455V8.8252L22.6289 1.00293H25.8105L28.0869 5.94238H28.1924L30.4775 1.00293H33.5625L29.5459 8.74609V13ZM39.5742 1.00293C42.334 1.00293 43.7754 2.90137 43.7754 5.16895C43.7754 7.47168 42.3076 9.29102 39.5391 9.29102H37.4033V13H34.5029V1.00293H39.5742ZM40.8311 5.16895C40.8311 3.9209 40.084 3.23535 38.8975 3.23535H37.3945V7.10254H38.5635C39.9609 7.10254 40.8311 6.5752 40.8311 5.16895ZM50.4814 13H47.5811V3.37598H44.3203V1.00293H53.751V3.37598H50.4814V13ZM65.0977 7.73535C65.0977 11.1104 63.1377 13.2197 59.7363 13.2197C56.3438 13.2197 54.3838 11.1104 54.3838 7.73535V6.33789C54.3838 2.92773 56.3613 0.791992 59.7539 0.791992C63.1465 0.791992 65.0977 2.94531 65.0977 6.33789V7.73535ZM62.127 6.30273C62.127 4.22852 61.1602 3.14746 59.7451 3.14746C58.3213 3.14746 57.3545 4.22852 57.3545 6.30273V7.74414C57.3545 9.82715 58.3213 10.8555 59.7451 10.8555C61.1602 10.8555 62.127 9.82715 62.127 7.74414V6.30273Z" fill="#B4C6D9"/>
</svg>
