<svg width="16" height="16" viewBox="0 0 16 16" fill="none" xmlns="http://www.w3.org/2000/svg">
<path d="M8.40332 15.2344C4.23145 15.2344 0.833008 11.8359 0.833008 7.66406C0.833008 3.48438 4.23145 0.09375 8.40332 0.09375C12.583 0.09375 15.9736 3.48438 15.9736 7.66406C15.9736 11.8359 12.583 15.2344 8.40332 15.2344ZM8.24707 9.22656C8.64551 9.22656 8.8877 8.98438 8.89551 8.67188C8.89551 8.64844 8.89551 8.61719 8.89551 8.58594C8.90332 8.16406 9.16113 7.89844 9.68457 7.5625C10.4268 7.07031 10.9424 6.625 10.9424 5.71875C10.9424 4.44531 9.80957 3.75 8.48926 3.75C7.16895 3.75 6.30176 4.35938 6.08301 5.0625C6.03613 5.1875 6.00488 5.32031 6.00488 5.45312C6.00488 5.80469 6.29395 6.00781 6.56738 6.00781C6.83301 6.00781 7.00488 5.88281 7.15332 5.69531L7.27832 5.52344C7.55176 5.07812 7.93457 4.84375 8.41895 4.84375C9.09082 4.84375 9.52832 5.22656 9.52832 5.78125C9.52832 6.28906 9.20801 6.53906 8.54395 7C7.99707 7.38281 7.59082 7.77344 7.59082 8.51562V8.60156C7.59082 9.01562 7.8252 9.22656 8.24707 9.22656ZM8.23145 11.5312C8.69238 11.5312 9.08301 11.1797 9.08301 10.7188C9.08301 10.2578 8.7002 9.90625 8.23145 9.90625C7.7627 9.90625 7.37988 10.2656 7.37988 10.7188C7.37988 11.1719 7.77051 11.5312 8.23145 11.5312Z" fill="white"/>
</svg>
