<svg width="24" height="25" viewBox="0 0 24 25" fill="none" xmlns="http://www.w3.org/2000/svg">
<path d="M11.8916 24.4912C5.36084 24.4912 0.0629883 19.1934 0.0629883 12.6626C0.0629883 6.13184 5.36084 0.833984 11.8916 0.833984C18.4224 0.833984 23.7202 6.13184 23.7202 12.6626C23.7202 19.1934 18.4224 24.4912 11.8916 24.4912ZM11.8916 22.4038C17.2749 22.4038 21.6328 18.0459 21.6328 12.6626C21.6328 7.2793 17.2749 2.92139 11.8916 2.92139C6.5083 2.92139 2.1626 7.2793 2.1626 12.6626C2.1626 18.0459 6.5083 22.4038 11.8916 22.4038ZM11.6475 15.0186C11.0127 15.0186 10.6709 14.7012 10.6709 14.0786V13.9443C10.6709 12.8335 11.2812 12.2354 12.1113 11.6616C13.1123 10.9658 13.5884 10.5874 13.5884 9.81836C13.5884 8.97607 12.9292 8.39014 11.916 8.39014C11.1714 8.39014 10.5854 8.75635 10.1826 9.42773L9.9873 9.68408C9.76758 9.97705 9.51123 10.1602 9.1084 10.1602C8.69336 10.1602 8.27832 9.85498 8.27832 9.31787C8.27832 9.12256 8.31494 8.93945 8.37598 8.74414C8.70557 7.66992 10.0239 6.74219 12.0137 6.74219C14.0034 6.74219 15.7124 7.8042 15.7124 9.7207C15.7124 11.0879 14.9434 11.7593 13.8081 12.5039C13.0269 13.0166 12.6362 13.4194 12.624 14.0542C12.624 14.103 12.624 14.1519 12.624 14.1885C12.6118 14.6523 12.2456 15.0186 11.6475 15.0186ZM11.623 18.4976C10.9395 18.4976 10.3413 17.9604 10.3413 17.2769C10.3413 16.5933 10.9272 16.0562 11.623 16.0562C12.3311 16.0562 12.9048 16.5811 12.9048 17.2769C12.9048 17.9727 12.3188 18.4976 11.623 18.4976Z" fill="white"/>
</svg>
