<svg width="20" height="20" viewBox="0 0 20 20" fill="none" xmlns="http://www.w3.org/2000/svg">
<path d="M9.61328 19.293C4.38867 19.293 0.150391 15.0547 0.150391 9.83008C0.150391 4.60547 4.38867 0.367188 9.61328 0.367188C14.8379 0.367188 19.0762 4.60547 19.0762 9.83008C19.0762 15.0547 14.8379 19.293 9.61328 19.293ZM4.05664 3.89258C4.53516 4.22461 5.10156 4.49805 5.76562 4.71289C6.18555 3.58008 6.73242 2.65234 7.37695 2.00781C6.11719 2.36914 4.99414 3.02344 4.05664 3.89258ZM11.8594 2.00781C12.5039 2.66211 13.0508 3.58008 13.4707 4.71289C14.125 4.49805 14.7012 4.22461 15.1699 3.89258C14.2422 3.02344 13.1094 2.36914 11.8594 2.00781ZM10.2383 2.26172V5.23047C10.9512 5.21094 11.625 5.13281 12.2402 5.02539C11.7324 3.62891 11.0195 2.62305 10.2383 2.26172ZM6.99609 5.02539C7.61133 5.13281 8.27539 5.21094 8.99805 5.23047V2.26172C8.2168 2.62305 7.50391 3.62891 6.99609 5.02539ZM14.291 9.21484H17.7285C17.6016 7.54492 16.9766 6.02148 16 4.79102C15.4336 5.23047 14.6914 5.5918 13.8223 5.875C14.0859 6.88086 14.2422 8.00391 14.291 9.21484ZM1.50781 9.21484H4.94531C4.98438 8.00391 5.15039 6.88086 5.4043 5.875C4.54492 5.5918 3.80273 5.23047 3.23633 4.79102C2.25977 6.02148 1.63477 7.54492 1.50781 9.21484ZM6.20508 9.21484H8.99805V6.4707C8.16797 6.44141 7.36719 6.34375 6.63477 6.1875C6.40039 7.10547 6.25391 8.13086 6.20508 9.21484ZM10.2383 9.21484H13.0215C12.9824 8.13086 12.8262 7.10547 12.6016 6.1875C11.8594 6.34375 11.0684 6.44141 10.2383 6.4707V9.21484ZM1.50781 10.4453C1.63477 12.125 2.26953 13.6582 3.25586 14.8984C3.82227 14.4688 4.55469 14.1074 5.41406 13.834C5.15039 12.8086 4.98438 11.6758 4.94531 10.4453H1.50781ZM6.20508 10.4453C6.24414 11.5391 6.40039 12.5742 6.64453 13.5117C7.37695 13.3652 8.16797 13.2676 8.99805 13.2383V10.4453H6.20508ZM10.2383 13.2383C11.0586 13.2676 11.8496 13.3652 12.5918 13.5117C12.8262 12.5742 12.9824 11.5391 13.0312 10.4453H10.2383V13.2383ZM13.8223 13.834C14.6719 14.1074 15.4141 14.4688 15.9805 14.8984C16.9668 13.6582 17.6016 12.125 17.7285 10.4453H14.291C14.252 11.6758 14.0859 12.8086 13.8223 13.834ZM7.00586 14.6836C7.51367 16.0508 8.22656 17.0469 8.99805 17.4082V14.4688C8.28516 14.498 7.62109 14.5664 7.00586 14.6836ZM10.2383 14.4688V17.4082C11.0098 17.0469 11.7129 16.0508 12.2207 14.6836C11.6152 14.5664 10.9512 14.498 10.2383 14.4688ZM13.4609 14.9863C13.041 16.0996 12.5039 17.0078 11.8691 17.6426C13.1094 17.291 14.2227 16.6465 15.1406 15.7969C14.6719 15.4648 14.1055 15.2012 13.4609 14.9863ZM4.08594 15.7969C5.01367 16.6465 6.12695 17.291 7.36719 17.6426C6.73242 17.0078 6.18555 16.0996 5.77539 14.9863C5.12109 15.2012 4.55469 15.4648 4.08594 15.7969Z" fill="white"/>
</svg>
