<svg width="26" height="27" viewBox="0 0 26 27" fill="none" xmlns="http://www.w3.org/2000/svg">
<path d="M0 26.5L1.82758 19.8234C0.699833 17.8691 0.10725 15.6537 0.108333 13.3819C0.111583 6.27958 5.89117 0.5 12.9924 0.5C16.4385 0.501083 19.6733 1.84333 22.1065 4.27867C24.5386 6.714 25.8776 9.951 25.8765 13.3938C25.8733 20.4973 20.0937 26.2768 12.9924 26.2768C10.8366 26.2758 8.71217 25.7352 6.83042 24.7082L0 26.5ZM7.14675 22.3758C8.96242 23.4537 10.6958 24.0993 12.9881 24.1004C18.8901 24.1004 23.6979 19.2969 23.7012 13.3917C23.7033 7.4745 18.9183 2.6775 12.9967 2.67533C7.09042 2.67533 2.28583 7.47883 2.28367 13.383C2.28258 15.7934 2.98892 17.5982 4.17517 19.4865L3.09292 23.4385L7.14675 22.3758ZM19.4827 16.4564C19.4025 16.3221 19.188 16.2419 18.8652 16.0805C18.5434 15.9191 16.9607 15.1402 16.6649 15.0329C16.3703 14.9257 16.1558 14.8715 15.9402 15.1943C15.7257 15.5161 15.1082 16.2419 14.9208 16.4564C14.7333 16.6709 14.5448 16.698 14.2231 16.5366C13.9013 16.3752 12.8635 16.0361 11.6339 14.9387C10.6773 14.085 10.0306 13.0309 9.84317 12.7081C9.65575 12.3863 9.82367 12.2119 9.984 12.0516C10.1292 11.9075 10.3057 11.6757 10.4672 11.4872C10.6307 11.3008 10.6838 11.1665 10.7922 10.9509C10.8994 10.7364 10.8463 10.5479 10.7651 10.3865C10.6838 10.2262 10.0403 8.64125 9.77275 7.99667C9.51058 7.36942 9.24517 7.45392 9.048 7.44417L8.4305 7.43333C8.216 7.43333 7.86717 7.5135 7.5725 7.83633C7.27783 8.15917 6.44583 8.937 6.44583 10.5219C6.44583 12.1068 7.59958 13.6376 7.75992 13.8521C7.92133 14.0666 10.0295 17.3188 13.2589 18.713C14.027 19.0445 14.6272 19.2428 15.0941 19.3912C15.8654 19.636 16.5674 19.6013 17.1221 19.519C17.7407 19.4269 19.0266 18.7401 19.2953 17.9883C19.5639 17.2353 19.5639 16.5907 19.4827 16.4564Z" fill="#25D366"/>
</svg>
