<svg width="18" height="18" viewBox="0 0 18 18" fill="none" xmlns="http://www.w3.org/2000/svg">
<path d="M9 17.4736C4.32666 17.4736 0.533203 13.6802 0.533203 9.00684C0.533203 4.3335 4.32666 0.540039 9 0.540039C13.6733 0.540039 17.4668 4.3335 17.4668 9.00684C17.4668 13.6802 13.6733 17.4736 9 17.4736ZM9 16.3447C13.0508 16.3447 16.3379 13.0576 16.3379 9.00684C16.3379 6.5 15.0845 4.29199 13.167 2.96387C12.5859 4.08447 10.9092 4.96436 10.0625 5.37939C10.2949 5.74463 10.4526 6.02686 10.4526 6.30908C10.4526 6.84863 10.1621 7.22217 9.62256 7.22217C8.9751 7.22217 8.33594 6.5415 7.9292 6.5415C7.69678 6.5415 7.49756 6.67432 7.49756 6.90674C7.49756 7.31348 8.56006 8.24316 9.0332 8.24316C9.50635 8.24316 10.1621 7.66211 10.5688 7.66211C11.5068 7.66211 13.2998 9.23096 13.2998 10.0361C13.2998 11.4639 10.3945 15.2822 9.33203 15.2822C8.80908 15.2822 8.21973 14.7759 8.21973 14.3193C8.21973 13.813 8.54346 13.3979 8.53516 12.8501C8.53516 12.543 8.21143 12.4019 6.8667 11.3892C6.43506 11.0737 6.23584 10.7168 6.23584 10.3018C6.23584 9.84521 6.63428 9.59619 6.63428 9.23926C6.63428 9.02344 6.41016 8.86572 6.02832 8.52539L4.81641 7.47119C3.6709 6.4834 3.00684 5.53711 3.07324 4.68213C2.18506 5.89404 1.66211 7.38818 1.66211 9.00684C1.66211 13.0576 4.94922 16.3447 9 16.3447Z" fill="white"/>
</svg>
