<svg width="18" height="18" viewBox="0 0 18 18" fill="none" xmlns="http://www.w3.org/2000/svg">
<path d="M9 17.4736C4.32666 17.4736 0.533203 13.6802 0.533203 9.00684C0.533203 4.3335 4.32666 0.540039 9 0.540039C13.6733 0.540039 17.4668 4.3335 17.4668 9.00684C17.4668 13.6802 13.6733 17.4736 9 17.4736ZM9 16.0625C12.9014 16.0625 16.0557 12.9082 16.0557 9.00684C16.0557 5.10547 12.9014 1.95117 9 1.95117C5.09863 1.95117 1.94434 5.10547 1.94434 9.00684C1.94434 12.9082 5.09863 16.0625 9 16.0625ZM6.10303 6.60791C6.10303 5.11377 7.37305 3.98486 8.9834 3.98486C10.6021 3.98486 11.8804 5.15527 11.8804 6.64941C11.8804 8.30127 10.7764 8.6665 10.6104 11.5303C10.6021 11.6963 10.5024 11.7959 10.3364 11.7959H7.63037C7.48096 11.7959 7.38965 11.6963 7.37305 11.5303C7.19873 8.6665 6.10303 8.25977 6.10303 6.60791ZM7.72998 12.8999C7.54736 12.8999 7.39795 12.7422 7.39795 12.5596C7.39795 12.377 7.54736 12.2275 7.72998 12.2275H10.2534C10.436 12.2275 10.5938 12.377 10.5938 12.5596C10.5938 12.7422 10.436 12.8999 10.2534 12.8999H7.72998ZM8.9917 14.0205C8.39404 14.0205 7.9458 13.7466 7.9043 13.3232H10.0791C10.0293 13.7466 9.58936 14.0205 8.9917 14.0205Z" fill="white"/>
</svg>
