<svg width="18" height="18" viewBox="0 0 18 18" fill="none" xmlns="http://www.w3.org/2000/svg">
<path d="M9 17.4736C4.33496 17.4736 0.533203 13.6719 0.533203 9.00684C0.533203 4.3335 4.33496 0.540039 9 0.540039C13.6733 0.540039 17.4668 4.3335 17.4668 9.00684C17.4668 13.6719 13.6733 17.4736 9 17.4736ZM4.84961 6.92334C5.25635 6.92334 5.58838 6.58301 5.58838 6.18457C5.58838 5.76953 5.26465 5.4458 4.84961 5.4458C4.44287 5.4458 4.11914 5.76953 4.11914 6.18457C4.11914 6.59131 4.44287 6.92334 4.84961 6.92334ZM6.9165 6.70752H13.3247C13.6235 6.70752 13.856 6.4751 13.856 6.18457C13.856 5.89404 13.6235 5.66992 13.3247 5.66992H6.9165C6.61768 5.66992 6.40186 5.89404 6.40186 6.18457C6.40186 6.4668 6.63428 6.70752 6.9165 6.70752ZM4.84961 9.75391C5.25635 9.75391 5.58838 9.42188 5.58838 9.01514C5.58838 8.6084 5.25635 8.27637 4.84961 8.27637C4.44287 8.27637 4.11914 8.6001 4.11914 9.01514C4.11914 9.43018 4.44287 9.75391 4.84961 9.75391ZM6.9165 9.53809H13.3247C13.6235 9.53809 13.856 9.30566 13.856 9.01514C13.856 8.72461 13.6235 8.50049 13.3247 8.50049H6.9165C6.63428 8.50049 6.40186 8.73291 6.40186 9.01514C6.40186 9.29736 6.63428 9.53809 6.9165 9.53809ZM4.84961 12.5845C5.26465 12.5845 5.58838 12.2607 5.58838 11.8457C5.58838 11.4473 5.25635 11.1069 4.84961 11.1069C4.44287 11.1069 4.11914 11.439 4.11914 11.8457C4.11914 12.2607 4.44287 12.5845 4.84961 12.5845ZM6.9165 12.3687H13.3247C13.6235 12.3687 13.856 12.1362 13.856 11.8457C13.856 11.5552 13.6235 11.3311 13.3247 11.3311H6.9165C6.63428 11.3311 6.40186 11.5635 6.40186 11.8457C6.40186 12.1362 6.61768 12.3687 6.9165 12.3687Z" fill="white"/>
</svg>
