<svg width="43" height="43" viewBox="0 0 43 43" fill="none" xmlns="http://www.w3.org/2000/svg">
<circle cx="21.5" cy="21.5" r="21.5" fill="url(#paint0_linear_1_2004)"/>
<path d="M21.4371 30.8941C16.2857 30.8941 12.0893 26.6978 12.0893 21.5463C12.0893 16.3853 16.2857 12.1985 21.4371 12.1985C26.5982 12.1985 30.7849 16.3853 30.7849 21.5463C30.7849 26.6978 26.5982 30.8941 21.4371 30.8941ZM21.3696 18.3436C22.0642 18.3436 22.614 17.7841 22.614 17.0895C22.614 16.3756 22.0642 15.8161 21.3696 15.8161C20.6654 15.8161 20.1058 16.3756 20.1058 17.0895C20.1058 17.7841 20.6654 18.3436 21.3696 18.3436ZM19.7875 26.8232H23.6173C24.0225 26.8232 24.3312 26.5338 24.3312 26.1189C24.3312 25.7427 24.0225 25.434 23.6173 25.434H22.4983V20.7553C22.4983 20.2247 22.2281 19.8678 21.7265 19.8678H19.9418C19.5463 19.8678 19.2376 20.1765 19.2376 20.5624C19.2376 20.9675 19.5463 21.2569 19.9418 21.2569H20.9355V25.434H19.7875C19.3823 25.434 19.0736 25.7427 19.0736 26.1189C19.0736 26.5338 19.3823 26.8232 19.7875 26.8232Z" fill="white"/>
<defs>
<linearGradient id="paint0_linear_1_2004" x1="5.76977" y1="-13.6442" x2="48.034" y2="-11.734" gradientUnits="userSpaceOnUse">
<stop stop-color="#2875FF"/>
<stop offset="1" stop-color="#0059F9"/>
</linearGradient>
</defs>
</svg>
