<svg width="25" height="18" viewBox="0 0 25 18" fill="none" xmlns="http://www.w3.org/2000/svg">
<path d="M3.78418 17.5791C1.67188 17.5791 0.543945 16.4717 0.543945 14.3696V3.64404C0.543945 1.54199 1.66162 0.43457 3.56885 0.43457H21.2056C23.3179 0.43457 24.4458 1.54199 24.4458 3.64404V14.3696C24.4458 16.4717 23.3281 17.5791 21.4209 17.5791H3.78418ZM11.6489 9.51953C11.9155 9.76562 12.2026 9.88867 12.4897 9.88867C12.7871 9.88867 13.064 9.76562 13.3408 9.51953L21.2979 2.35205C21.2568 2.35205 21.2158 2.35205 21.1748 2.35205H3.81494C3.77393 2.35205 3.72266 2.35205 3.68164 2.35205L11.6489 9.51953ZM22.5283 3.71582C22.5283 3.66455 22.5283 3.62354 22.5283 3.58252L16.9707 8.58643L22.5283 14.144V3.71582ZM2.46143 3.70557V14.144L8.01904 8.58643L2.46143 3.58252C2.46143 3.62354 2.46143 3.66455 2.46143 3.70557ZM3.81494 15.6616H21.1748C21.3081 15.6616 21.4414 15.6514 21.5542 15.6309L15.6685 9.74512L14.397 10.9038C13.7817 11.4575 13.1768 11.7036 12.4897 11.7036C11.8027 11.7036 11.1978 11.4575 10.5928 10.9038L9.31104 9.75537L3.43555 15.6309C3.54834 15.6514 3.68164 15.6616 3.81494 15.6616Z" fill="#363C45"/>
</svg>
