<svg width="40" height="26" viewBox="0 0 40 26" fill="none" xmlns="http://www.w3.org/2000/svg">
<path d="M11.4511 2.13496C12.1474 0.932119 13.4326 0.192192 14.8224 0.193951L39.6922 0.225427C39.8287 0.2256 39.9135 0.373667 39.8447 0.491454L37.1302 5.13607C36.4327 6.32955 35.1542 7.0632 33.7718 7.0632H8.90476C8.76856 7.0632 8.6835 6.91568 8.75174 6.7978L11.4511 2.13496Z" fill="white"/>
<path d="M6.71266 11.2974C7.40899 10.0945 8.69418 9.35461 10.084 9.35637L34.9538 9.38784C35.0902 9.38801 35.1751 9.53608 35.1062 9.65387L32.3918 14.2985C31.6943 15.492 30.4158 16.2256 29.0334 16.2256H4.16635C4.03015 16.2256 3.94509 16.0781 4.01333 15.9602L6.71266 11.2974Z" fill="white"/>
<path d="M2.56631 20.9994C3.3357 19.4168 4.94101 18.4122 6.70072 18.4122H17.3413C17.4781 18.4122 17.5631 18.561 17.4936 18.6789L14.9533 22.9874C14.1267 24.3892 12.6206 25.2496 10.9932 25.2496H0.782558C0.651978 25.2496 0.566449 25.1129 0.623543 24.9955L2.56631 20.9994Z" fill="white"/>
</svg>
