<svg width="27" height="29" viewBox="0 0 27 29" fill="none" xmlns="http://www.w3.org/2000/svg">
<circle cx="13.5" cy="15.5879" r="9.97826" fill="white"/>
<path d="M13.4885 26.1928C7.36676 26.1928 2.37993 21.2059 2.37993 15.0842C2.37993 8.95092 7.36676 3.97554 13.4885 3.97554C19.6218 3.97554 24.5971 8.95092 24.5971 15.0842C24.5971 21.2059 19.6218 26.1928 13.4885 26.1928ZM12.2848 20.4034C12.6631 20.4034 12.9841 20.22 13.2134 19.8532L18.3149 11.8742C18.4524 11.645 18.59 11.3813 18.59 11.1405C18.59 10.6132 18.1315 10.2693 17.627 10.2693C17.3175 10.2693 17.0309 10.4412 16.8246 10.7966L12.239 18.145L10.0723 15.3593C9.80859 15.0039 9.55639 14.9007 9.23539 14.9007C8.71951 14.9007 8.31827 15.3134 8.31827 15.8293C8.31827 16.0815 8.42145 16.3337 8.59341 16.5515L11.2874 19.8646C11.5855 20.243 11.895 20.4034 12.2848 20.4034Z" fill="url(#paint0_linear_1_504)"/>
<defs>
<linearGradient id="paint0_linear_1_504" x1="3.62288" y1="-7.97054" x2="30.1647" y2="-6.81376" gradientUnits="userSpaceOnUse">
<stop stop-color="#2875FF"/>
<stop offset="1" stop-color="#0059F9"/>
</linearGradient>
</defs>
</svg>
