<svg width="37" height="37" viewBox="0 0 37 37" fill="none" xmlns="http://www.w3.org/2000/svg">
<circle cx="18.5" cy="18.5" r="18.5" fill="url(#paint0_linear_1_1233)"/>
<path d="M12.0005 24.2822V12.3955C12.0005 10.7437 12.8389 9.89697 14.4741 9.89697H19.6787C20.4175 9.89697 20.9072 10.0796 21.3721 10.561L24.6841 13.8647C25.1406 14.3213 25.2983 14.7529 25.2983 15.5415V24.2822C25.2983 25.9424 24.4683 26.7891 22.8247 26.7891H14.4741C12.8306 26.7891 12.0005 25.9507 12.0005 24.2822ZM13.3618 24.2407C13.3618 25.0044 13.7686 25.4277 14.5571 25.4277H22.7334C23.5303 25.4277 23.937 25.0044 23.937 24.2407V15.6245C23.937 15.1182 23.8457 14.8525 23.5801 14.5786L20.7163 11.6899C20.4175 11.3828 20.1021 11.25 19.6372 11.25H14.5654C13.7686 11.25 13.3618 11.6816 13.3618 12.4453V24.2407ZM14.9141 19.2603V18.2642C14.9141 17.5835 15.3374 17.1685 16.0015 17.1685H19.4297V24.1245H17.9355V19.75C17.9355 19.4512 17.7612 19.2603 17.4458 19.2603H14.9141ZM20.3345 24.1245V17.1685H21.3057C21.9697 17.1685 22.3931 17.5835 22.3931 18.2642V23.0371C22.3931 23.7095 21.9697 24.1245 21.3057 24.1245H20.3345ZM14.9141 23.0371V20.165H16.9062C16.9893 20.165 17.0391 20.2065 17.0391 20.2896V24.1245H16.0015C15.3374 24.1245 14.9141 23.7095 14.9141 23.0371Z" fill="white"/>
<defs>
<linearGradient id="paint0_linear_1_1233" x1="4.96469" y1="-11.7404" x2="41.3316" y2="-10.0967" gradientUnits="userSpaceOnUse">
<stop stop-color="#2875FF"/>
<stop offset="1" stop-color="#0059F9"/>
</linearGradient>
</defs>
</svg>
