<svg width="14" height="18" viewBox="0 0 14 18" fill="none" xmlns="http://www.w3.org/2000/svg">
<path d="M0.000488281 15.2822V3.39551C0.000488281 1.74365 0.838867 0.896973 2.47412 0.896973H7.67871C8.41748 0.896973 8.90723 1.07959 9.37207 1.56104L12.6841 4.86475C13.1406 5.32129 13.2983 5.75293 13.2983 6.5415V15.2822C13.2983 16.9424 12.4683 17.7891 10.8247 17.7891H2.47412C0.830566 17.7891 0.000488281 16.9507 0.000488281 15.2822ZM1.36182 15.2407C1.36182 16.0044 1.76855 16.4277 2.55713 16.4277H10.7334C11.5303 16.4277 11.937 16.0044 11.937 15.2407V6.62451C11.937 6.11816 11.8457 5.85254 11.5801 5.57861L8.71631 2.68994C8.41748 2.38281 8.10205 2.25 7.63721 2.25H2.56543C1.76855 2.25 1.36182 2.68164 1.36182 3.44531V15.2407ZM2.91406 10.2603V9.26416C2.91406 8.5835 3.3374 8.16846 4.00146 8.16846H7.42969V15.1245H5.93555V10.75C5.93555 10.4512 5.76123 10.2603 5.4458 10.2603H2.91406ZM8.33447 15.1245V8.16846H9.30566C9.96973 8.16846 10.3931 8.5835 10.3931 9.26416V14.0371C10.3931 14.7095 9.96973 15.1245 9.30566 15.1245H8.33447ZM2.91406 14.0371V11.165H4.90625C4.98926 11.165 5.03906 11.2065 5.03906 11.2896V15.1245H4.00146C3.3374 15.1245 2.91406 14.7095 2.91406 14.0371Z" fill="white"/>
</svg>
