<svg width="15" height="12" viewBox="0 0 15 12" fill="none" xmlns="http://www.w3.org/2000/svg">
<path d="M3.91855 7.07721L0.847486 6.07659C0.847486 6.07659 0.48046 5.92769 0.598642 5.59002C0.622971 5.52039 0.672047 5.46114 0.818858 5.35932C1.49932 4.88502 13.4137 0.602656 13.4137 0.602656C13.4137 0.602656 13.7501 0.489298 13.9485 0.564695C13.9976 0.579889 14.0418 0.607848 14.0765 0.645711C14.1113 0.683575 14.1353 0.729984 14.1462 0.780192C14.1677 0.868873 14.1766 0.96011 14.1729 1.05127C14.1719 1.13013 14.1624 1.20322 14.1551 1.31783C14.0826 2.48865 11.911 11.2268 11.911 11.2268C11.911 11.2268 11.7811 11.7381 11.3156 11.7556C11.2012 11.7593 11.0872 11.74 10.9805 11.6987C10.8737 11.6574 10.7764 11.595 10.6943 11.5153C9.7808 10.7295 6.62354 8.60771 5.92587 8.14106C5.91014 8.13034 5.89688 8.11637 5.88701 8.10009C5.87713 8.08381 5.87086 8.0656 5.86862 8.04669C5.85886 7.99751 5.91235 7.93658 5.91235 7.93658C5.91235 7.93658 11.41 3.04988 11.5563 2.53689C11.5676 2.49714 11.5248 2.47753 11.4673 2.49494C11.1022 2.62927 4.77236 6.62661 4.07375 7.06777C4.02347 7.08299 3.97031 7.08622 3.91855 7.07721Z" fill="white"/>
</svg>
