<svg width="28" height="28" viewBox="0 0 28 28" fill="none" xmlns="http://www.w3.org/2000/svg">
<path d="M14 2.72729C20.2257 2.72729 25.2733 7.77412 25.2734 13.9998C25.2734 20.2255 20.2258 25.2732 14 25.2732C7.77437 25.273 2.72754 20.2254 2.72754 13.9998C2.72768 7.77421 7.77446 2.72744 14 2.72729Z" stroke="white" stroke-width="2"/>
<path d="M9.91855 15.0772L6.84749 14.0766C6.84749 14.0766 6.48046 13.9277 6.59864 13.59C6.62297 13.5204 6.67205 13.4611 6.81886 13.3593C7.49932 12.885 19.4137 8.60266 19.4137 8.60266C19.4137 8.60266 19.7501 8.4893 19.9485 8.5647C19.9976 8.57989 20.0418 8.60785 20.0765 8.64571C20.1113 8.68357 20.1353 8.72998 20.1462 8.78019C20.1677 8.86887 20.1766 8.96011 20.1729 9.05127C20.1719 9.13013 20.1624 9.20322 20.1551 9.31783C20.0826 10.4886 17.911 19.2268 17.911 19.2268C17.911 19.2268 17.7811 19.7381 17.3156 19.7556C17.2012 19.7593 17.0872 19.74 16.9805 19.6987C16.8737 19.6574 16.7764 19.595 16.6943 19.5153C15.7808 18.7295 12.6235 16.6077 11.9259 16.1411C11.9101 16.1303 11.8969 16.1164 11.887 16.1001C11.8771 16.0838 11.8709 16.0656 11.8686 16.0467C11.8589 15.9975 11.9123 15.9366 11.9123 15.9366C11.9123 15.9366 17.41 11.0499 17.5563 10.5369C17.5676 10.4971 17.5248 10.4775 17.4673 10.4949C17.1022 10.6293 10.7724 14.6266 10.0738 15.0678C10.0235 15.083 9.97031 15.0862 9.91855 15.0772Z" fill="white"/>
</svg>
