<svg width="30" height="30" viewBox="0 0 30 30" fill="none" xmlns="http://www.w3.org/2000/svg">
<rect width="30" height="30" rx="7" fill="#D749C2"/>
<path d="M7.81982 22.6519C6.08496 22.6519 5.21338 21.7969 5.21338 20.0869V9.94336C5.21338 8.2334 6.08496 7.37012 7.81982 7.37012H22.1802C23.9233 7.37012 24.7866 8.2334 24.7866 9.94336V20.0869C24.7866 21.7969 23.9233 22.6519 22.1802 22.6519H7.81982ZM6.5498 10.0181V12.085H23.4502V10.0181C23.4502 9.15479 22.9854 8.70654 22.1636 8.70654H7.83643C7.00635 8.70654 6.5498 9.15479 6.5498 10.0181ZM20.5283 11.4624C19.9639 11.4707 19.4741 10.9727 19.4741 10.3999C19.4741 9.81885 19.9639 9.3291 20.5283 9.3291C21.1011 9.3291 21.5825 9.81885 21.5825 10.3999C21.5825 10.9727 21.1011 11.4458 20.5283 11.4624ZM6.5498 16.7002H23.4502V13.3384H6.5498V16.7002ZM20.5283 16.061C19.9639 16.0693 19.4741 15.5713 19.4741 14.9985C19.4741 14.4175 19.9639 13.9277 20.5283 13.9277C21.1011 13.9277 21.5825 14.4175 21.5825 14.9985C21.5825 15.5713 21.1011 16.0444 20.5283 16.061ZM7.83643 21.3154H22.1636C22.9854 21.3154 23.4502 20.8755 23.4502 20.0122V17.9536H6.5498V20.0122C6.5498 20.8755 7.00635 21.3154 7.83643 21.3154ZM20.5283 20.6597C19.9639 20.668 19.4741 20.1699 19.4741 19.5972C19.4741 19.0161 19.9639 18.5264 20.5283 18.5264C21.1011 18.5264 21.5825 19.0161 21.5825 19.5972C21.5825 20.1699 21.1011 20.6431 20.5283 20.6597Z" fill="white"/>
</svg>
